<?xml version="1.0" encoding="UTF-8" standalone="no"?>
<!-- Uploaded to: SVG Repo, www.svgrepo.com, Transformed by: SVG Repo Mixer Tools -->

<svg
   fill="#000000"
   height="800px"
   width="800px"
   version="1.1"
   id="Capa_1"
   viewBox="0 0 78.667 78.667"
   xml:space="preserve"
   sodipodi:docname="speech-bubble-svgrepo-com.svg"
   inkscape:version="1.3.2 (091e20e, 2023-11-25, custom)"
   xmlns:inkscape="http://www.inkscape.org/namespaces/inkscape"
   xmlns:sodipodi="http://sodipodi.sourceforge.net/DTD/sodipodi-0.dtd"
   xmlns="http://www.w3.org/2000/svg"
   xmlns:svg="http://www.w3.org/2000/svg"><defs
   id="defs1" /><sodipodi:namedview
   id="namedview1"
   pagecolor="#a9a9a9"
   bordercolor="#666666"
   borderopacity="1.0"
   inkscape:showpageshadow="2"
   inkscape:pageopacity="0.0"
   inkscape:pagecheckerboard="0"
   inkscape:deskcolor="#d1d1d1"
   inkscape:zoom="0.97125"
   inkscape:cx="399.4852"
   inkscape:cy="400"
   inkscape:window-width="1920"
   inkscape:window-height="991"
   inkscape:window-x="-9"
   inkscape:window-y="-9"
   inkscape:window-maximized="1"
   inkscape:current-layer="Capa_1" />





<g
   id="SVGRepo_iconCarrier"
   style="stroke-width:0.49166875;stroke-dasharray:none;fill:#000000"> <g
   id="g1"
   style="stroke-width:0.49166875;stroke-dasharray:none;fill:#000000"> <path
   d="M9.49,73.833c-1.493,0-2.943-0.24-4.309-0.713l-3.113-1.077l2.392-2.265c3.165-2.997,3.964-6.455,4.016-9.046 C3.004,54.666,0,47.097,0,39.334c0-19.023,17.645-34.5,39.333-34.5s39.334,15.477,39.334,34.5 c0,19.022-17.646,34.498-39.334,34.498c-6.458,0-12.827-1.399-18.505-4.057C18.689,71.289,14.366,73.833,9.49,73.833z M20.361,65.078l1.148,0.581c5.397,2.729,11.561,4.173,17.824,4.173c19.483,0,35.334-13.682,35.334-30.498 c0-16.818-15.851-30.5-35.334-30.5S4,22.516,4,39.334c0,6.99,2.814,13.823,7.925,19.238l0.52,0.552l0.024,0.757 c0.087,2.72-0.401,6.407-2.818,9.951c4.63-0.074,8.89-3.298,9.705-3.95L20.361,65.078z"
   id="path1"
   style="stroke-width:0.09833375;stroke-dasharray:none;fill:#000000;fill-opacity:1" /> </g> </g>

<path
   style="fill:#ffffff;fill-opacity:1;stroke:#000000;stroke-width:1.0296;stroke-linecap:round;stroke-linejoin:round;stroke-dasharray:none"
   d="m 99.8713,709.26331 c 0,-0.39464 1.36347,-2.84303 3.02994,-5.44086 4.37719,-6.82355 12.83031,-25.07269 15.83421,-34.18392 5.82246,-17.66031 9.65846,-44.37785 8.7165,-60.71005 l -0.45001,-7.80254 -10.06037,-11.24508 C 46.571419,511.22388 23.668828,409.46726 55.086549,315.05792 69.619019,271.38826 94.171339,232.46444 129.1324,197.66993 189.16671,137.92161 269.43273,101.48583 361.90476,92.005754 368.70013,91.309104 385.84299,90.739118 400,90.739118 c 27.54236,0 41.1197,1.040069 66.40927,5.087166 65.86223,10.539956 127.64368,37.627956 178.63578,78.322656 15.08867,12.04165 40.04293,37.22482 51.3856,51.85698 33.44599,43.14567 51.94189,85.68218 59.98748,137.95804 2.55349,16.5912 2.55349,55.48088 0,72.07208 -9.93828,64.57356 -37.70207,118.52516 -85.58035,166.30288 -104.4236,104.20427 -274.02113,136.24487 -419.61513,79.27428 -5.37966,-2.10505 -17.53716,-7.56262 -27.01667,-12.12792 l -17.23546,-8.30056 -5.93056,4.78896 c -24.86588,20.07931 -57.45218,36.41071 -82.14869,41.17076 -10.88738,2.09845 -19.01997,3.00445 -19.01997,2.11887 z"
   id="path4"
   transform="scale(0.09833375)" /><g
   id="text1"
   style="font-size:15.7334px;line-height:1.25;font-family:'Times New Roman';-inkscape-font-specification:'Times New Roman, ';display:inline;stroke-width:0.0983338"
   aria-label="Hey!&#10;Click Me"><path
     style="font-weight:bold;font-family:Cambria;-inkscape-font-specification:'Cambria Bold';text-align:center;text-anchor:middle"
     d="m 32.738862,31.381189 q 0,0.591539 0.04609,0.814326 0.05378,0.215105 0.207423,0.361069 0.153647,0.145964 0.56081,0.245835 v 0.507033 h -4.010174 v -0.507033 q 0.445575,-0.115235 0.576175,-0.23047 0.130599,-0.115235 0.184376,-0.322658 0.05378,-0.215105 0.05378,-0.868102 v -3.080612 h -3.472411 v 3.080612 q 0,0.268881 0.01536,0.499351 0.01536,0.230469 0.06146,0.376434 0.04609,0.145964 0.1306,0.245834 0.09219,0.09987 0.245834,0.176693 0.153647,0.06914 0.376434,0.122918 v 0.507033 h -4.03322 v -0.507033 q 0.284246,-0.07682 0.445575,-0.161329 0.169011,-0.09219 0.245834,-0.245835 0.08451,-0.161328 0.107553,-0.39948 0.02305,-0.245835 0.02305,-0.614586 v -6.622164 q 0,-0.361069 -0.02305,-0.606904 -0.01537,-0.245834 -0.09987,-0.39948 -0.07682,-0.153647 -0.245834,-0.245835 -0.161329,-0.09987 -0.453257,-0.176693 v -0.507034 h 4.03322 v 0.507034 q -0.407163,0.115235 -0.560809,0.253516 -0.145965,0.138282 -0.207423,0.368752 -0.06146,0.222787 -0.06146,0.814326 v 2.565897 h 3.472411 v -2.565897 q 0,-0.583856 -0.05378,-0.806644 -0.04609,-0.230469 -0.199741,-0.368751 -0.145964,-0.145964 -0.56081,-0.261199 v -0.507034 h 4.010174 v 0.507034 q -0.338022,0.09219 -0.491669,0.19974 -0.153646,0.09987 -0.222787,0.261199 -0.06146,0.161329 -0.08451,0.361069 -0.01537,0.199741 -0.01537,0.614586 z m 9.172695,0.53008 q -0.783597,0.829691 -1.551829,1.175396 -0.768233,0.345704 -1.766935,0.345704 -1.789981,0 -2.696496,-0.975655 -0.898832,-0.983337 -0.898832,-2.911601 0,-1.244536 0.46094,-2.143368 0.468622,-0.906515 1.32136,-1.367454 0.852738,-0.468622 1.982039,-0.468622 0.699092,0 1.22149,0.161329 0.53008,0.161329 0.906514,0.453257 0.376434,0.284246 0.622268,0.691409 0.291929,0.483987 0.437893,1.106255 0.153646,0.637633 0.161329,1.544147 h -4.870594 q 0.0077,1.390501 0.491669,2.051181 0.491669,0.652997 1.490371,0.652997 0.583856,0 1.052478,-0.215105 0.468622,-0.222787 1.014067,-0.775915 z M 39.83733,28.692375 q -0.03073,-1.175396 -0.307293,-1.75157 -0.276564,-0.576174 -0.89115,-0.576174 -0.591539,0 -0.944926,0.599221 -0.345704,0.599221 -0.414845,1.728523 z m 7.07542,4.962782 q -0.499352,1.113937 -0.944926,1.743887 -0.437893,0.637633 -0.952609,0.952609 -0.507033,0.314975 -1.267583,0.314975 -0.576174,0 -1.075526,-0.145964 v -1.759253 h 0.860421 q 0.09987,0.36107 0.245834,0.491669 0.153647,0.138282 0.422528,0.138282 0.291928,0 0.522398,-0.161329 0.238152,-0.161329 0.53008,-0.606903 0.299611,-0.437893 0.729821,-1.313678 H 45.545296 L 43.540209,27.540026 Q 43.325104,26.933123 43.194505,26.710335 43.071587,26.479866 42.910258,26.364631 42.756612,26.241714 42.526142,26.19562 v -0.507034 h 3.83348 v 0.507034 q -0.361069,0.06914 -0.53008,0.207422 -0.169011,0.138282 -0.169011,0.414846 0,0.368752 0.19974,0.96029 l 1.106255,3.357176 1.221489,-2.94233 q 0.153647,-0.368752 0.23047,-0.645315 0.07682,-0.284246 0.07682,-0.553128 0,-0.322657 -0.184375,-0.53008 -0.184376,-0.215105 -0.522399,-0.268881 v -0.507034 h 2.988425 v 0.514716 q -0.222788,0.06914 -0.36107,0.169011 -0.130599,0.09987 -0.253516,0.261199 -0.115235,0.161329 -0.284246,0.483987 -0.169011,0.314975 -0.46094,0.96029 z m 7.789879,-10.832078 -0.699092,7.060056 h -1.29063 l -0.606904,-7.060056 z m -0.307293,8.166311 v 2.320062 H 52.328791 V 30.98939 Z"
     id="path2" /><path
     style="font-weight:bold;font-family:Cambria;-inkscape-font-specification:'Cambria Bold';text-align:center;text-anchor:middle"
     d="m 17.524019,42.967306 v 2.227874 h -1.044796 q -0.184376,-0.868103 -0.583857,-1.275266 -0.399481,-0.414846 -1.044796,-0.414846 -1.213807,0 -1.836075,1.167714 -0.622269,1.160031 -0.622269,3.449363 0,2.128004 0.568492,3.226576 0.568492,1.090891 1.667065,1.090891 0.560809,0 0.914196,-0.184376 0.353387,-0.192058 0.56081,-0.568492 0.215105,-0.376434 0.368752,-1.060161 h 1.052478 v 2.327744 q -0.845056,0.199741 -1.544147,0.291929 -0.699092,0.09219 -1.45196,0.09219 -1.597923,0 -2.61199,-0.576174 -1.006384,-0.576174 -1.490371,-1.736205 -0.4763039,-1.167713 -0.4763039,-2.950013 0,-1.667064 0.5608099,-2.896236 0.568492,-1.236854 1.667064,-1.905216 1.098573,-0.668363 2.627355,-0.668363 0.775915,0 1.405865,0.08451 0.629951,0.08451 1.313678,0.276564 z m 4.186867,8.028029 q 0,0.72982 0.04609,1.006384 0.04609,0.276564 0.184375,0.445575 0.145965,0.161329 0.537763,0.261199 v 0.507033 h -3.764339 v -0.507033 q 0.23047,-0.05378 0.361069,-0.122917 0.1306,-0.07682 0.199741,-0.169011 0.07682,-0.09987 0.130599,-0.245835 0.05378,-0.153646 0.06914,-0.414845 0.01537,-0.268882 0.01537,-0.76055 v -5.992213 q 0,-0.66068 -0.01537,-0.967973 -0.0077,-0.314976 -0.04609,-0.522398 -0.03073,-0.215105 -0.115235,-0.338023 -0.07682,-0.130599 -0.222787,-0.207422 -0.145964,-0.07682 -0.468622,-0.138282 V 42.32199 l 2.128004,-0.107552 h 0.960291 z m 4.885958,-8.465922 v 1.88217 h -2.104957 v -1.88217 z m -2.919283,10.17908 q 0.376433,-0.09987 0.514715,-0.261199 0.145964,-0.161329 0.192058,-0.437893 0.05378,-0.276563 0.05378,-1.006384 v -3.572281 q 0,-0.376434 -0.03841,-0.606904 -0.03073,-0.230469 -0.130599,-0.368751 -0.09219,-0.138282 -0.2612,-0.207423 -0.161328,-0.07682 -0.422527,-0.130599 V 45.59466 l 2.112639,-0.06146 h 0.96029 v 5.462133 q 0,0.43021 0.0077,0.668362 0.01536,0.230469 0.03841,0.361069 0.02305,0.122917 0.06146,0.222787 0.04609,0.09987 0.115235,0.184376 0.06914,0.08451 0.19974,0.153647 0.1306,0.06914 0.345705,0.122917 v 0.507033 h -3.748974 z m 10.80903,-1.459642 0.591539,0.714456 q -0.752867,0.737504 -1.459641,1.060161 -0.699092,0.314975 -1.528783,0.314975 -1.667064,0 -2.542849,-0.975655 -0.875785,-0.983337 -0.875785,-2.850142 0,-1.259901 0.476304,-2.174098 0.483986,-0.921879 1.382818,-1.390501 0.898832,-0.476304 2.058863,-0.476304 0.622268,0 1.236854,0.09219 0.622269,0.08451 1.129302,0.238152 v 1.85144 h -1.5211 q -0.115235,-0.722138 -0.345705,-1.052478 -0.230469,-0.33034 -0.66068,-0.33034 -0.284246,0 -0.545445,0.145964 -0.253516,0.138282 -0.453257,0.491669 -0.192058,0.345705 -0.307293,0.937244 -0.115235,0.583856 -0.115235,1.482688 0,0.898832 0.169012,1.5211 0.169011,0.614586 0.545445,0.952609 0.376433,0.33034 0.991019,0.33034 0.445575,0 0.837374,-0.192059 0.399481,-0.192058 0.937243,-0.691409 z m 6.952503,-2.880871 1.98204,2.934648 q 0.437892,0.652997 0.645315,0.898831 0.207423,0.245835 0.361069,0.353387 0.153647,0.09987 0.384116,0.153647 v 0.507033 h -3.756656 v -0.507033 q 0.345704,-0.06914 0.345704,-0.361069 0,-0.199741 -0.138281,-0.468622 -0.1306,-0.276564 -0.522399,-0.852738 l -0.591539,-0.89115 q -0.19974,-0.29961 -0.322657,-0.43021 -0.122917,-0.138282 -0.245835,-0.207423 -0.115234,-0.06914 -0.330339,-0.06914 H 38.88088 v 1.567195 q 0,0.72982 0.04609,1.006384 0.04609,0.276564 0.184376,0.445575 0.145964,0.161329 0.537762,0.261199 v 0.507033 h -3.764339 v -0.507033 q 0.23047,-0.05378 0.36107,-0.122917 0.130599,-0.07682 0.19974,-0.169011 0.07682,-0.09987 0.1306,-0.245835 0.05378,-0.153646 0.06914,-0.414845 0.01536,-0.268882 0.01536,-0.76055 v -5.992213 q 0,-0.66068 -0.01536,-0.967973 -0.0077,-0.314976 -0.04609,-0.522398 -0.03841,-0.215105 -0.115235,-0.338023 -0.07682,-0.130599 -0.222788,-0.207422 -0.145964,-0.07682 -0.468621,-0.138282 V 42.32199 l 2.135686,-0.107552 h 0.952608 v 6.476199 h 0.253517 q 0.268881,0 0.422528,-0.05378 0.153646,-0.05378 0.314975,-0.169011 0.169011,-0.122917 0.514716,-0.43021 0.345704,-0.314976 0.522398,-0.553128 0.176693,-0.245834 0.238152,-0.422528 0.06146,-0.184375 0.06146,-0.353386 0,-0.530081 -0.668362,-0.622269 V 45.59466 h 3.841162 v 0.491669 q -0.29961,0.04609 -0.668362,0.276564 -0.368752,0.23047 -1.160031,0.967973 z m 19.251905,-5.131793 q -0.407163,0.115235 -0.553128,0.253517 -0.145964,0.130599 -0.207422,0.361069 -0.05378,0.222787 -0.05378,0.798962 v 6.64521 q 0,0.468622 0.04609,0.745186 0.04609,0.268881 0.184376,0.414845 0.145964,0.138282 0.583857,0.253517 v 0.507033 h -3.941033 v -0.507033 q 0.338023,-0.09219 0.468622,-0.161329 0.1306,-0.06914 0.199741,-0.176693 0.07682,-0.115235 0.107552,-0.338023 0.03841,-0.230469 0.03841,-0.752867 v -3.764339 q 0,-0.622269 0.02305,-1.467324 0.02305,-0.845056 0.04609,-1.198443 h -0.161329 q -0.09219,0.307293 -0.199741,0.606904 -0.09987,0.291928 -0.384116,1.052478 l -2.058863,5.546638 H 53.477296 L 51.310881,45.82513 q -0.192058,-0.53008 -0.338023,-1.052478 h -0.138281 q 0.07682,1.267583 0.07682,2.996106 v 3.53387 q 0,0.568492 0.05378,0.791279 0.05378,0.222787 0.215105,0.368751 0.161329,0.145965 0.56081,0.245835 v 0.507033 h -2.903919 v -0.507033 q 0.284246,-0.07682 0.445575,-0.169011 0.169011,-0.09219 0.253517,-0.245835 0.08451,-0.153646 0.09987,-0.391798 0.02305,-0.238152 0.02305,-0.606904 v -6.64521 q 0,-0.583857 -0.05378,-0.798962 -0.04609,-0.215105 -0.192058,-0.353387 -0.145965,-0.138282 -0.576175,-0.261199 v -0.507034 h 3.818115 l 2.128004,6.307189 2.304698,-6.307189 h 3.60301 z m 8.358369,8.581156 q -0.783597,0.829691 -1.551829,1.175396 -0.768232,0.345704 -1.766935,0.345704 -1.789981,0 -2.696496,-0.975655 -0.898831,-0.983337 -0.898831,-2.911601 0,-1.244536 0.460939,-2.143368 0.468622,-0.906514 1.32136,-1.367454 0.852738,-0.468622 1.982039,-0.468622 0.699092,0 1.22149,0.161329 0.53008,0.161329 0.906514,0.453257 0.376434,0.284246 0.622269,0.691409 0.291928,0.483987 0.437892,1.106255 0.153647,0.637633 0.161329,1.544147 h -4.870594 q 0.0077,1.390501 0.491669,2.051181 0.491669,0.652998 1.490371,0.652998 0.583857,0 1.052478,-0.215106 0.468622,-0.222787 1.014067,-0.775914 z m -2.074227,-3.218894 q -0.03073,-1.175395 -0.307293,-1.75157 -0.276564,-0.576174 -0.89115,-0.576174 -0.591539,0 -0.944926,0.599221 -0.345704,0.599222 -0.414845,1.728523 z"
     id="path3" /></g></svg>
